<svg width="348" height="184" viewBox="0 0 348 184" fill="none" xmlns="http://www.w3.org/2000/svg">
<g clip-path="url(#clip0_2_507)">
<path d="M242.771 15.756C242.513 16.7592 241.641 17.5332 240.656 17.8972C239.672 18.2612 238.586 18.2653 237.541 18.1454C236.231 17.9952 234.921 17.647 233.819 16.9348C232.717 16.2226 231.839 15.1139 231.61 13.8364C231.38 12.5589 231.885 11.1321 232.987 10.42L232.298 10.1905C230.618 9.4939 228.563 10.1435 227.338 11.472C226.113 12.8007 225.639 14.6753 225.709 16.4676C225.779 18.2598 226.344 19.9959 226.98 21.6771C227.397 22.7819 227.908 23.949 228.929 24.5667C229.834 25.1146 230.965 25.1201 232.025 25.042C234.697 24.8451 237.415 24.185 239.555 22.598C241.696 21.0112 243.154 18.3657 242.771 15.756Z" fill="#FD764C"/>
<path d="M198.914 43.4244C196.619 43.8809 194.325 44.3373 192.031 44.7938C190.053 54.2711 188.075 63.7483 186.097 73.2255C198.312 81.378 203.48 48.7683 198.914 43.4244Z" fill="#FD764C"/>
<path d="M189.894 0.283546C189.088 0.891406 188.617 1.82679 188.029 2.62393C187.128 3.93914 186.31 5.30658 185.577 6.71881C183.91 9.97242 182.561 13.3741 181.547 16.8781C180.01 17.8876 178.47 18.9977 177.631 20.6662C176.342 23.2429 175.979 26.1732 176.601 28.9789C176.97 31.29 177.914 33.4757 179.348 35.3419C180.324 36.6732 181.601 37.7426 182.977 38.6574C182.62 38.2852 182.277 37.9006 181.937 37.514C180.596 36.0834 179.425 33.6335 179.028 32.5279C178.224 29.9969 178.138 28.441 177.947 26.693C177.815 24.3128 178.107 22.8008 178.723 20.8561C179.155 19.588 180.345 18.2108 181.516 16.981C181.501 17.0342 181.484 17.0869 181.469 17.1402C181.515 17.0544 181.562 16.9697 181.608 16.884C181.648 16.8424 181.688 16.7994 181.728 16.7582C181.701 16.7756 181.675 16.7936 181.648 16.811C184.25 11.9846 187.12 7.30307 190.246 2.78798C190.239 7.20459 189.779 11.9457 189.839 16.4482C190.369 13.6017 190.842 10.7457 191.295 7.88651C191.601 5.82661 192.004 3.75434 191.951 1.66529C192.033 0.468804 191.025 -0.501481 189.894 0.283546Z" fill="black"/>
<path d="M213.73 10.1538C213.498 8.2375 213.505 6.23324 212.823 4.40611C212.527 3.52682 211.532 2.90015 210.656 3.44076C210.118 3.7778 209.833 4.35947 209.545 4.89825C209.094 5.74899 208.668 6.61256 208.248 7.47837C207.092 9.85181 205.866 12.2129 205.025 14.7101C205.033 14.6322 205.041 14.554 205.049 14.476C205.159 13.3801 205.158 12.2433 204.736 11.2068C203.092 6.56755 198.529 6.71872 194.741 8.73371C193.222 9.62729 192.007 10.9303 190.788 12.174C192.763 10.9324 194.696 9.48633 197.056 9.06684C200.274 8.22122 202.729 8.80268 204.246 11.8456C204.732 12.7315 204.872 13.7519 205.017 14.7363C204.762 15.4833 204.549 16.2433 204.378 17.0129C206.281 13.3556 208.973 10.1823 210.975 6.58158C211.052 6.45329 211.127 6.32353 211.202 6.19428C211.841 9.5988 212.454 13.0082 213.248 16.383C213.54 17.6958 213.82 19.0116 214.121 20.3224C214.123 20.1989 214.126 20.0753 214.128 19.9517C214.191 16.6809 214.058 13.4092 213.73 10.1538V10.1538Z" fill="black"/>
<path d="M214.474 19.3049C215.142 20.9059 215.494 22.3516 215.492 23.8861C215.51 25.2791 215.532 25.906 215.218 27.064C214.783 28.6835 213.744 30.0577 213.052 30.9125C213.064 30.8972 213.111 30.8375 213.182 30.7471C212.019 32.1467 210.711 33.3384 209.388 34.4968C208.233 35.4674 206.646 36.6661 205.739 37.3679C205.301 37.6942 204.848 38.0015 204.382 38.2899C206.05 37.8331 207.595 37.0351 209.13 36.2622C212.927 34.2479 216.746 30.9055 216.81 26.352C216.804 23.8344 216.054 21.3052 214.474 19.3049Z" fill="black"/>
<path d="M188.588 18.5295C186.355 18.584 186.36 21.8027 188.588 21.8631C190.821 21.8087 190.815 18.5899 188.588 18.5295Z" fill="black"/>
<path d="M204.637 19.5482C202.404 19.6027 202.41 22.8214 204.637 22.8819C206.87 22.8274 206.864 19.6087 204.637 19.5482Z" fill="black"/>
<path d="M196.305 26.455C195.662 26.3566 195.012 26.3124 194.362 26.3229C195.028 26.5038 195.696 26.6854 196.347 26.9133C196.349 26.899 196.368 26.9151 196.39 26.9332C195.918 27.4779 195.231 28.1179 194.682 28.686C194.495 28.8807 194.292 29.0598 194.075 29.2214C193.776 28.1415 193.653 26.9155 193.377 25.7993C193.328 26.8454 193.303 27.8947 193.36 28.941C193.352 29.9501 193.908 30.3091 194.718 29.6006C195.461 28.9328 196.127 28.1854 196.702 27.3722C197.122 26.8888 196.923 26.5265 196.305 26.455Z" fill="black"/>
<path d="M195.542 32.2597C194.744 32.3617 193.932 32.2663 193.18 31.9819C192.332 31.6443 191.382 30.8487 190.529 30.2561C191.225 31.0852 191.943 31.9847 192.966 32.4306C193.452 32.6187 193.973 32.7032 194.494 32.6786C195.016 32.6539 195.526 32.5205 195.992 32.2873C196.131 32.2153 196.265 32.1334 196.392 32.0421C196.117 32.1446 195.832 32.2175 195.542 32.2597V32.2597Z" fill="black"/>
<path d="M242.75 51.9174C241.728 46.118 239.489 40.0845 234.681 36.3076C233.886 35.6747 233.038 35.1112 232.144 34.6233C231.568 34.2859 230.923 33.9275 230.233 34.0878C229.907 34.1711 229.62 34.3629 229.422 34.6307C229.223 34.8985 229.125 35.2257 229.143 35.5568C229.15 36.106 229.493 36.5816 229.78 37.0293C232.834 41.2459 234.682 43.6714 235.705 47.6934C236.411 50.1792 235.986 52.5703 234.613 55.0053C233.524 56.9054 232.66 58.1417 230.956 59.5373C230.487 59.9612 228.919 60.6902 228.122 61.2714C227.829 61.5124 227.563 61.7829 227.328 62.0785C227.071 61.4247 226.729 60.8066 226.31 60.2399C224.436 57.7421 221.755 55.945 218.707 55.1436C215.987 54.4469 213.888 54.9234 212.078 53.7377C211.299 53.0584 210.927 52.3895 210.322 51.1074C209.485 49.394 208.646 47.022 207.996 44.7052C207.619 43.547 207.273 42.3306 206.544 41.3327C205.988 40.6456 205.134 40.3104 204.365 39.9124C205 40.3685 205.674 40.7402 206.141 41.3706C206.705 42.2408 206.855 43.3053 207.072 44.2989C207.47 46.7776 207.928 49.2542 208.77 51.6304C209.15 52.7461 209.574 53.8735 210.356 54.7834C212.204 57.0464 215.44 56.7282 218.013 57.5031C220.64 58.2931 222.919 59.9319 224.482 62.1545C225.587 63.8852 226.313 67.2275 226.85 70.1262C227.516 73.7632 227.237 79.1457 226.338 83.2482C226.287 83.4674 226.232 83.6855 226.174 83.9028C226.204 83.8368 226.234 83.7708 226.264 83.7048C227.382 81.022 228.169 78.2175 228.61 75.3508C229.145 71.7162 228.837 67.9963 228.047 64.4197C227.877 63.669 227.655 62.9307 227.383 62.2097C227.673 61.9322 227.994 61.6879 228.339 61.4812C229.353 60.9639 230.491 60.7078 231.468 60.1122C233.853 58.6786 235.74 56.5082 237.048 54.0943C238.686 51.3104 238.46 47.9257 237.493 44.9571C237.107 43.6775 236.593 42.4387 235.958 41.2588C238.377 44.6393 239.84 49.2598 240.611 53.4052C240.884 55.1842 241.185 57.9074 240.799 59.6109C240.029 63.2645 238.354 65.7366 235.318 68.3319C234.088 69.3638 231.689 70.3588 229.61 70.4689C231.795 70.6439 233.979 70.1335 235.85 69.0109C239.343 66.8174 242.003 63.3319 242.848 59.3121C243.33 56.872 243.096 54.3604 242.75 51.9174Z" fill="black"/>
<path d="M203.087 57.8063C202.182 62.6675 201.794 67.6083 201.93 72.5486C203.075 67.7216 203.386 62.7468 203.087 57.8063Z" fill="black"/>
<path d="M226.272 84.7379C223.6 82.0978 220.342 80.084 216.982 78.3994C215.024 77.5159 212.966 76.8799 210.895 76.3019C210.42 75.761 209.893 75.2669 209.321 74.8267C208.951 74.5026 208.623 74.1351 208.344 73.7323C208.09 73.4047 207.922 73.0198 207.857 72.6126C207.431 70.7743 207.993 67.7705 209.216 66.4919C212.366 63.2276 212.77 66.5272 212.459 60.4288C212.2 61.5286 212.159 62.7121 211.717 63.7565C211.672 63.829 211.56 63.8603 211.385 63.9069C209.771 64.1641 208.126 65.4607 207.453 66.4936C206.782 67.5413 206.369 68.7288 206.247 69.9614C206.125 71.194 206.297 72.4376 206.75 73.5932C207.237 74.5331 208.077 75.2272 208.981 75.7778C204.986 74.5916 200.797 74.3644 196.686 74.8759C196.886 72.0003 197.124 69.1291 197.418 66.2611C197.616 63.1214 197.691 59.9748 197.749 56.8301C196.133 62.7028 195.3 68.8869 196.39 74.9119C194.904 75.1104 193.432 75.4005 191.984 75.7804C190.754 76.0852 189.547 76.4703 188.37 76.9332C189.034 73.3189 189.276 69.6417 189.091 65.9733C188.931 63.0308 188.565 60.0909 187.621 57.2834C187.991 60.7179 187.755 64.1661 187.806 67.6106C187.79 70.7548 188.045 73.8906 188.118 77.0318C185.557 78.0541 183.158 79.4338 180.995 81.1285C180.595 81.4598 180.2 81.7975 179.81 82.1414C180.11 80.7933 180.296 79.4231 180.367 78.0448C180.503 75.044 180.083 72.0633 179.801 69.0826C179.489 64.6696 179.646 60.2353 179.082 55.8371C178.726 51.3457 178.364 47.4656 179.997 43.3895C180.115 43.1016 180.737 42.0255 181.215 41.6737C181.798 41.211 182.411 40.7848 183.049 40.3977C183.069 40.4471 183.098 40.4925 183.135 40.5316C184.008 41.1713 185.238 40.5968 186.075 40.1506C186.718 40.1152 186.812 41.4428 187.808 41.7488C188.435 41.9935 189.159 41.7414 189.708 41.6867C190.203 41.7136 190.696 41.8159 191.189 41.7049C191.667 41.6564 192.103 41.4461 192.569 41.3437C192.772 41.3262 194.381 41.1801 195.184 40.8592C195.697 40.691 196.246 40.655 196.777 40.7546C197.496 40.8922 198.236 40.8776 198.949 40.7115C199.319 40.5765 199.716 40.525 200.109 40.5607C202.206 40.8307 203.426 41.4433 204.821 38.7714C205.011 38.3743 204.772 38.7845 204.627 38.9264C204.239 39.3811 203.762 39.7544 203.225 40.0243C202.613 40.3749 201.555 39.9031 200.811 39.6742C199.667 39.2543 198.938 39.5676 198.021 39.5446C197.376 39.5291 196.725 39.2455 196.03 39.2409C195.314 39.2271 194.626 39.4419 193.936 39.5961C193.367 39.7353 193.124 39.6842 192.218 39.8381C191.7 39.948 191.227 40.2052 190.698 40.2745C190.293 40.2863 189.357 40.1974 188.807 40.4567C188.607 40.5252 188.394 40.5484 188.184 40.5245C187.992 40.4954 187.696 39.9838 187.421 39.7329C186.939 39.2191 186.107 38.9123 185.504 39.4136C184.955 39.7975 184.362 40.3758 183.431 40.2003C183.291 39.6224 183.36 38.9983 183.281 38.4059C183.199 38.908 183.106 39.4086 183.024 39.9107C182.994 40.057 182.998 40.2081 183.036 40.3525C182.259 40.6755 181.461 40.967 180.755 41.4274C180.076 41.9261 179.509 42.5582 179.091 43.2838C176.787 47.3257 176.818 52.0782 176.919 56.5816C177.161 62.0882 177.125 67.6461 178.501 73.0272C179.245 76.2604 179.585 79.1758 179.443 82.4716C176.722 84.9294 174.231 87.6228 172 90.5194C177.071 85.7192 182.654 81.1932 188.667 79.3705C193.912 77.7444 200.049 77.1391 204.32 77.7958C207.329 78.3109 210.269 79.187 213.171 80.1117C216.135 81.0523 218.199 82.1844 221.39 84.0737C225.955 86.8097 231.101 92.4333 235.423 97.9013C235.621 98.1505 235.819 98.3996 236.018 98.6487C233.398 93.6266 230.293 88.7937 226.272 84.7379Z" fill="black"/>
<path d="M243.732 11.0575C242.916 9.67357 241.771 8.50513 240.395 7.65244C238.935 6.64744 237.1 6.15256 235.361 6.68549C235.041 6.72931 232.958 7.53202 233.775 7.32392C235.003 7.0936 236.338 6.91172 237.585 7.39483C240.133 8.60693 241.914 11.1584 242.468 13.9862C242.62 14.9577 242.416 15.9507 241.891 16.7872C241.267 17.7677 240.398 18.5744 239.367 19.13C238.336 19.6856 237.177 19.9717 236.002 19.9607C233.65 19.8561 231.365 19.2089 229.665 17.2682C229.024 16.4401 228.03 14.2387 228.405 12.8727C228.984 10.3034 231.467 9.09017 234.072 9.33028C231.308 8.43113 228.204 9.53843 227.051 12.2537C226.251 14.1059 226.718 16.2814 227.572 18.038C230.224 22.8355 237.698 24.4926 241.977 20.846C245.18 18.3697 245.957 14.4556 243.732 11.0575Z" fill="black"/>
</g>
<path d="M7.26503 9.72258H30.7974C38.3783 9.72258 44.3009 11.3546 48.5652 14.6186C52.8294 17.8826 54.9615 22.6996 54.9615 29.0697C54.9615 35.4397 52.8294 40.1515 48.5652 43.2049C44.3535 46.2583 38.431 47.785 30.7974 47.785H25.6645V62.8679C25.6645 63.447 25.4539 63.9471 25.0328 64.3683C24.6116 64.7894 24.1115 65 23.5324 65H7.26503C6.68594 65 6.18581 64.7894 5.76465 64.3683C5.34348 63.9471 5.1329 63.447 5.1329 62.8679V11.8547C5.1329 11.2756 5.34348 10.7755 5.76465 10.3543C6.18581 9.93316 6.68594 9.72258 7.26503 9.72258ZM25.2697 24.4106V33.176H30.7974C31.745 33.176 32.5874 32.8338 33.3244 32.1494C34.0614 31.4124 34.4299 30.3858 34.4299 29.0697C34.4299 27.7536 34.1404 26.648 33.5613 25.753C32.9822 24.8581 32.0609 24.4106 30.7974 24.4106H25.2697ZM81.383 49.6013H105.705C106.284 49.6013 106.784 49.8119 107.205 50.233C107.627 50.6542 107.837 51.1543 107.837 51.7334V62.8679C107.837 63.447 107.627 63.9471 107.205 64.3683C106.784 64.7894 106.284 65 105.705 65H64.5629C63.9838 65 63.4837 64.7894 63.0625 64.3683C62.6414 63.9471 62.4308 63.447 62.4308 62.8679V11.8547C62.4308 11.2756 62.6414 10.7755 63.0625 10.3543C63.4837 9.93316 63.9838 9.72258 64.5629 9.72258H105.073C105.652 9.72258 106.153 9.93316 106.574 10.3543C106.995 10.7755 107.205 11.2756 107.205 11.8547V22.9892C107.205 23.5683 106.995 24.0684 106.574 24.4896C106.153 24.9107 105.652 25.1213 105.073 25.1213H81.383V30.0963H103.336C103.915 30.0963 104.415 30.3068 104.836 30.728C105.258 31.1492 105.468 31.6493 105.468 32.2284V42.4942C105.468 43.0733 105.258 43.5734 104.836 43.9946C104.415 44.4157 103.915 44.6263 103.336 44.6263H81.383V49.6013ZM116.706 9.72258H162.981C163.56 9.72258 164.061 9.93316 164.482 10.3543C164.903 10.7755 165.114 11.2756 165.114 11.8547V24.5685C165.114 25.1476 164.903 25.6477 164.482 26.0689C164.061 26.4901 163.56 26.7006 162.981 26.7006H149.873V62.8679C149.873 63.447 149.662 63.9471 149.241 64.3683C148.82 64.7894 148.32 65 147.741 65H131.947C131.368 65 130.868 64.7894 130.447 64.3683C130.026 63.9471 129.815 63.447 129.815 62.8679V26.7006H116.706C116.127 26.7006 115.627 26.4901 115.206 26.0689C114.785 25.6477 114.574 25.1476 114.574 24.5685V11.8547C114.574 11.2756 114.785 10.7755 115.206 10.3543C115.627 9.93316 116.127 9.72258 116.706 9.72258Z" fill="#FD764C"/>
<path d="M39.7997 89.7226H55.2774C55.8565 89.7226 56.3566 89.9332 56.7778 90.3543C57.199 90.7755 57.4095 91.2756 57.4095 91.8547V142.868C57.4095 143.447 57.199 143.947 56.7778 144.368C56.3566 144.789 55.8565 145 55.2774 145H39.7997C39.2206 145 38.7205 144.789 38.2994 144.368C37.8782 143.947 37.6676 143.447 37.6676 142.868V125.811H24.8748V142.868C24.8748 143.447 24.6643 143.947 24.2431 144.368C23.8219 144.789 23.3218 145 22.7427 145H7.26503C6.68594 145 6.18581 144.816 5.76465 144.447C5.34348 144.026 5.1329 143.5 5.1329 142.868V91.8547C5.1329 91.2756 5.34348 90.7755 5.76465 90.3543C6.18581 89.9332 6.68594 89.7226 7.26503 89.7226H22.7427C23.3218 89.7226 23.8219 89.9332 24.2431 90.3543C24.6643 90.7755 24.8748 91.2756 24.8748 91.8547V108.438H37.6676V91.8547C37.6676 91.2756 37.8782 90.7755 38.2994 90.3543C38.7205 89.9332 39.2206 89.7226 39.7997 89.7226ZM88.996 129.601H113.318C113.897 129.601 114.397 129.812 114.818 130.233C115.24 130.654 115.45 131.154 115.45 131.733V142.868C115.45 143.447 115.24 143.947 114.818 144.368C114.397 144.789 113.897 145 113.318 145H72.1759C71.5968 145 71.0967 144.789 70.6755 144.368C70.2543 143.947 70.0438 143.447 70.0438 142.868V91.8547C70.0438 91.2756 70.2543 90.7755 70.6755 90.3543C71.0967 89.9332 71.5968 89.7226 72.1759 89.7226H112.686C113.265 89.7226 113.766 89.9332 114.187 90.3543C114.608 90.7755 114.818 91.2756 114.818 91.8547V102.989C114.818 103.568 114.608 104.068 114.187 104.49C113.766 104.911 113.265 105.121 112.686 105.121H88.996V110.096H110.949C111.528 110.096 112.028 110.307 112.449 110.728C112.871 111.149 113.081 111.649 113.081 112.228V122.494C113.081 123.073 112.871 123.573 112.449 123.995C112.028 124.416 111.528 124.626 110.949 124.626H88.996V129.601ZM147.378 128.812H169.252C169.831 128.812 170.331 129.022 170.752 129.443C171.173 129.865 171.384 130.365 171.384 130.944V142.868C171.384 143.447 171.173 143.947 170.752 144.368C170.331 144.789 169.831 145 169.252 145H129.452C128.873 145 128.373 144.789 127.952 144.368C127.531 143.947 127.32 143.447 127.32 142.868V91.8547C127.32 91.2756 127.531 90.7755 127.952 90.3543C128.373 89.9332 128.873 89.7226 129.452 89.7226H145.246C145.825 89.7226 146.325 89.9332 146.746 90.3543C147.167 90.7755 147.378 91.2756 147.378 91.8547V128.812ZM183.027 89.7226H206.559C214.14 89.7226 220.063 91.3546 224.327 94.6186C228.591 97.8826 230.723 102.7 230.723 109.07C230.723 115.44 228.591 120.151 224.327 123.205C220.115 126.258 214.193 127.785 206.559 127.785H201.426V142.868C201.426 143.447 201.216 143.947 200.795 144.368C200.373 144.789 199.873 145 199.294 145H183.027C182.448 145 181.948 144.789 181.526 144.368C181.105 143.947 180.895 143.447 180.895 142.868V91.8547C180.895 91.2756 181.105 90.7755 181.526 90.3543C181.948 89.9332 182.448 89.7226 183.027 89.7226ZM201.032 104.411V113.176H206.559C207.507 113.176 208.349 112.834 209.086 112.149C209.823 111.412 210.192 110.386 210.192 109.07C210.192 107.754 209.902 106.648 209.323 105.753C208.744 104.858 207.823 104.411 206.559 104.411H201.032Z" fill="#3F3D56"/>
<defs>
<clipPath id="clip0_2_507">
<rect width="73" height="98.6486" fill="white" transform="translate(172)"/>
</clipPath>
</defs>
</svg>
